<?xml version="1.0" encoding="UTF-8"?>
<!-- Created with Inkscape (http://www.inkscape.org/) -->
<svg width="1500.0001" height="900" version="1.0" xml:space="preserve" xmlns="http://www.w3.org/2000/svg" xmlns:cc="http://creativecommons.org/ns#" xmlns:dc="http://purl.org/dc/elements/1.1/" xmlns:rdf="http://www.w3.org/1999/02/22-rdf-syntax-ns#"><metadata><rdf:RDF><cc:Work rdf:about=""><dc:format>image/svg+xml</dc:format><dc:type rdf:resource="http://purl.org/dc/dcmitype/StillImage"/></cc:Work></rdf:RDF></metadata><g transform="translate(-181.65415,-382.33517)" fill-rule="evenodd"><g transform="matrix(1.0416668,0,0,1,-7.5689387,0)"><rect x="181.65414" y="382.33517" width="1439.9999" height="99.999985" fill="#409d27"/><rect x="181.65414" y="482.33514" width="1439.9999" height="99.999985" fill="#d90000"/><rect x="181.65414" y="582.33521" width="1439.9999" height="99.999985" fill="#ffe600"/><rect x="181.65414" y="682.33514" width="1439.9999" height="99.999985" fill="#409d27"/><rect x="181.65414" y="782.33521" width="1439.9999" height="99.999985" fill="#d90000"/><rect x="181.65414" y="882.33527" width="1439.9999" height="99.999985" fill="#ffe600"/><rect x="181.65414" y="1082.3352" width="1439.9999" height="99.999985" fill="#d90000"/><rect x="181.65414" y="1182.3352" width="1439.9999" height="99.999985" fill="#ffe600"/><rect x="181.65414" y="982.33527" width="1439.9999" height="99.999985" fill="#409d27"/></g><g transform="matrix(3.4416011,0,0,3.4416011,-454.32794,-910.38394)"><path d="m330.5938 419.49923c-3.34088 1e-5 -6.03207 2.70478-6.03207 6.06253 1e-5 3.35776 2.69119 6.0625 6.03207 6.0625h1.77232v114.34389c0.35535 33.21432 57.21581 27.38843 70.36377 47.03131 13.14797-19.64288 69.97735-13.81699 70.33269-47.03131v-114.34389h1.77232c3.3409 1e-5 6.03208-2.70475 6.03207-6.0625 1e-5 -3.35775-2.69117-6.06253-6.03207-6.06253z" fill="#409d27" stroke="#000000" stroke-width=".598491"/><g transform="matrix(.96311851 0 0 .94965624 14.472254 21.991681)" fill="#ffe600"><rect transform="matrix(-.7002124 .7139346 .7139346 .7002124 0 0)" x="84.492615" y="632.0802" width="7.8286824" height="63.63961" ry="3.0482917"/><path d="m370.1782 436.83036 29.59375 61.90625v69.875c0 1.57483 1.26892 2.84376 2.84375 2.84375h1.28125c1.57483 0 2.84374-1.26891 2.84375-2.84375v-69.8125l29.625-61.96875z"/><rect transform="rotate(45.555953)" x="648.77338" y="56.7411" width="7.8286824" height="63.63961" ry="3.0482917"/><path d="m469.48099 453.68178c-1.45333-0.73432-46.51106 7.26694-58.56197 52.11292l5.32246 5.42676c46.55799-9.14507 53.23951-57.53968 53.23951-57.53968z"/><path d="m336.73775 453.68178c1.45333-0.73432 46.51106 7.26694 58.56197 52.11292l-5.32246 5.42676c-46.55799-9.14507-53.23951-57.53968-53.23951-57.53968z"/></g></g></g></svg>
